<svg width="231" height="160" viewBox="0 0 231 160" fill="none" xmlns="http://www.w3.org/2000/svg" xmlns:xlink="http://www.w3.org/1999/xlink">
  <rect width="231" height="160" rx="8" fill="#4a148c"/>
  <path d="M16.2747 126.871H20.0373C25.4773 126.871 29.4364 128.155 31.9147 130.724C34.3929 133.293 35.632 137.328 35.632 142.828C35.632 148.329 34.3778 152.424 31.8693 155.113C29.3911 157.773 25.4471 159.103 20.0373 159.103H16.2747C10.8649 159.103 6.90578 157.773 4.39733 155.113C1.88889 152.424 0.634667 148.329 0.634667 142.828C0.634667 137.328 1.87378 133.293 4.352 130.724C6.86044 128.155 10.8347 126.871 16.2747 126.871ZM16.864 141.785V147.044C16.864 147.437 16.9698 147.754 17.1813 147.996C17.4231 148.238 17.7253 148.359 18.088 148.359C18.4809 148.359 18.7982 148.238 19.04 147.996C19.312 147.754 19.448 147.437 19.448 147.044V141.785C19.448 141.423 19.312 141.121 19.04 140.879C18.7982 140.637 18.4809 140.516 18.088 140.516C17.7253 140.516 17.4231 140.637 17.1813 140.879C16.9698 141.121 16.864 141.423 16.864 141.785ZM44.3261 134.079C42.0292 134.079 40.3367 133.625 39.2487 132.719C38.1607 131.812 37.6167 130.361 37.6167 128.367C37.6167 126.372 38.1607 124.937 39.2487 124.06C40.367 123.184 42.0594 122.745 44.3261 122.745C48.8594 122.745 51.1261 124.574 51.1261 128.231C51.1261 130.316 50.567 131.812 49.4487 132.719C48.3305 133.625 46.623 134.079 44.3261 134.079ZM37.6167 158.649V135.121H51.1261V158.649H37.6167ZM66.6049 144.279V158.649H53.7756V131.857H65.1543L65.6076 135.167C65.7285 134.834 66.0005 134.426 66.4236 133.943C66.8467 133.459 67.3 133.051 67.7836 132.719C69.1134 131.842 70.8814 131.404 73.0876 131.404C76.0494 131.404 78.2707 132.22 79.7516 133.852C81.2627 135.484 82.0183 137.857 82.0183 140.969V158.649H69.1889V144.279C69.1889 143.916 69.0529 143.614 68.7809 143.372C68.5392 143.1 68.2369 142.964 67.8743 142.964C67.5116 142.964 67.2094 143.1 66.9676 143.372C66.7258 143.614 66.6049 143.916 66.6049 144.279ZM98.1417 150.036V158.649H84.6324V124.876H98.1417V143.599H99.3204L100.998 131.857H115.006L112.104 144.732L115.006 158.649H100.454L99.3204 150.036H98.1417ZM131.6 126.871H135.363C140.803 126.871 144.762 128.155 147.24 130.724C149.718 133.293 150.958 137.328 150.958 142.828C150.958 148.329 149.703 152.424 147.195 155.113C144.717 157.773 140.773 159.103 135.363 159.103H131.6C126.19 159.103 122.231 157.773 119.723 155.113C117.214 152.424 115.96 148.329 115.96 142.828C115.96 137.328 117.199 133.293 119.678 130.724C122.186 128.155 126.16 126.871 131.6 126.871ZM132.19 141.785V147.044C132.19 147.437 132.295 147.754 132.507 147.996C132.749 148.238 133.051 148.359 133.414 148.359C133.806 148.359 134.124 148.238 134.366 147.996C134.638 147.754 134.774 147.437 134.774 147.044V141.785C134.774 141.423 134.638 141.121 134.366 140.879C134.124 140.637 133.806 140.516 133.414 140.516C133.051 140.516 132.749 140.637 132.507 140.879C132.295 141.121 132.19 141.423 132.19 141.785ZM159.652 134.079C157.355 134.079 155.662 133.625 154.574 132.719C153.486 131.812 152.942 130.361 152.942 128.367C152.942 126.372 153.486 124.937 154.574 124.06C155.692 123.184 157.385 122.745 159.652 122.745C164.185 122.745 166.452 124.574 166.452 128.231C166.452 130.316 165.892 131.812 164.774 132.719C163.656 133.625 161.948 134.079 159.652 134.079ZM152.942 158.649V135.121H166.452V158.649H152.942ZM181.93 144.279V158.649H169.101V131.857H180.48L180.933 135.167C181.054 134.834 181.326 134.426 181.749 133.943C182.172 133.459 182.626 133.051 183.109 132.719C184.439 131.842 186.207 131.404 188.413 131.404C191.375 131.404 193.596 132.22 195.077 133.852C196.588 135.484 197.344 137.857 197.344 140.969V158.649H184.514V144.279C184.514 143.916 184.378 143.614 184.106 143.372C183.865 143.1 183.562 142.964 183.2 142.964C182.837 142.964 182.535 143.1 182.293 143.372C182.051 143.614 181.93 143.916 181.93 144.279ZM213.467 150.036V158.649H199.958V124.876H213.467V143.599H214.646L216.323 131.857H230.331L227.43 144.732L230.331 158.649H215.779L214.646 150.036H213.467Z" fill="white"/>
  <g transform="translate(65, 20)">
    <text x="50" y="30" font-family="Arial" font-size="24" font-weight="bold" fill="white" text-anchor="middle">THE</text>
    <text x="50" y="60" font-family="Arial" font-size="28" font-weight="bold" fill="white" text-anchor="middle">OTHER</text>
    <text x="50" y="90" font-family="Arial" font-size="28" font-weight="bold" fill="white" text-anchor="middle">WORD</text>
  </g>
</svg>
